<svg width="12" height="12" viewBox="0 0 12 12" fill="none" xmlns="http://www.w3.org/2000/svg">
<g id="Icon">
<path id="Icon_2" fill-rule="evenodd" clip-rule="evenodd" d="M11.7236 5.19721L9.5 6.30902V7.84749C9.5 8.45487 9.27695 9.11241 8.71453 9.52464C8.13054 9.95269 7.14546 10.5 5.90892 10.5C5.14883 10.5 4.50739 10.2834 4 10.0097V10.5C4 11.0523 3.55228 11.5 3 11.5C2.44772 11.5 2 11.0523 2 10.5V9.75C2 9.37986 2.2011 9.05669 2.5 8.88378V6.30902L0.276393 5.19721C0.107001 5.11252 0 4.93939 0 4.75C0 4.56061 0.107001 4.38748 0.276393 4.30279L5.77639 1.55279C5.91716 1.4824 6.08284 1.4824 6.22361 1.55279L11.7236 4.30279C11.893 4.38748 12 4.56061 12 4.75C12 4.93939 11.893 5.11252 11.7236 5.19721ZM3.5 6.80902L5.77639 7.94721C5.91716 8.0176 6.08284 8.0176 6.22361 7.94721L8.5 6.80902V7.84749C8.5 8.23153 8.36056 8.54424 8.12336 8.7181C7.62925 9.08027 6.85011 9.5 5.90892 9.5C4.9386 9.5 4.20896 9.02289 3.78103 8.64018C3.60226 8.4803 3.5 8.21676 3.5 7.88616V6.80902ZM1.61803 4.75L3.21392 5.54795C3.22022 5.55093 3.22645 5.55404 3.2326 5.55728L3.24999 5.56598L5.77639 4.30277C6.02338 4.17928 6.32372 4.27939 6.44721 4.52638C6.57071 4.77337 6.4706 5.07371 6.22361 5.1972L4.36802 6.12499L6 6.94098L10.382 4.75L6 2.55902L1.61803 4.75Z" fill="#0077DD"/>
</g>
</svg>
