<svg width="6" height="69" viewBox="0 0 6 69" fill="none" xmlns="http://www.w3.org/2000/svg">
<path id="Vector" d="M0.333333 3.59766C0.333333 5.07042 1.52724 6.26432 3 6.26432C4.47276 6.26432 5.66667 5.07042 5.66667 3.59766C5.66667 2.1249 4.47276 0.93099 3 0.93099C1.52724 0.93099 0.333333 2.1249 0.333333 3.59766ZM0.333333 65.5977C0.333333 67.0704 1.52724 68.2643 3 68.2643C4.47276 68.2643 5.66667 67.0704 5.66667 65.5977C5.66667 64.1249 4.47276 62.931 3 62.931C1.52724 62.931 0.333333 64.1249 0.333333 65.5977ZM2.5 3.59766V65.5977H3.5V3.59766H2.5Z" fill="#CBDEEF"/>
</svg>
